<?xml version="1.0" encoding="UTF-8" standalone="no"?>
<!DOCTYPE svg PUBLIC "-//W3C//DTD SVG 1.1//EN"
 "http://www.w3.org/Graphics/SVG/1.1/DTD/svg11.dtd">
<!-- Generated by graphviz version 2.44.1 (20200629.0846)
 -->
<!-- Title: dependencies Pages: 1 -->
<svg width="1275pt" height="284pt"
 viewBox="0.00 0.00 1275.00 284.00" xmlns="http://www.w3.org/2000/svg" xmlns:xlink="http://www.w3.org/1999/xlink">
<g id="graph0" class="graph" transform="scale(1 1) rotate(0) translate(4 280)">
<title>dependencies</title>
<polygon fill="white" stroke="transparent" points="-4,4 -4,-280 1271,-280 1271,4 -4,4"/>
<text text-anchor="start" x="612.51" y="-42.4" font-family="sans-serif" font-weight="bold" font-size="14.00">Legend</text>
<polygon fill="#ffffb3" stroke="transparent" points="399.5,-10 399.5,-30 419.5,-30 419.5,-10 399.5,-10"/>
<text text-anchor="start" x="423.13" y="-15.4" font-family="sans-serif" font-size="14.00"> &#160;Declarations</text>
<polygon fill="#8dd3c7" stroke="transparent" points="512.5,-10 512.5,-30 532.5,-30 532.5,-10 512.5,-10"/>
<text text-anchor="start" x="536.23" y="-15.4" font-family="sans-serif" font-size="14.00"> &#160;Module</text>
<polygon fill="#80b1d3" stroke="transparent" points="598.5,-10 598.5,-30 618.5,-30 618.5,-10 598.5,-10"/>
<text text-anchor="start" x="622.28" y="-15.4" font-family="sans-serif" font-size="14.00"> &#160;Bootstrap</text>
<polygon fill="#fdb462" stroke="transparent" points="695.5,-10 695.5,-30 715.5,-30 715.5,-10 695.5,-10"/>
<text text-anchor="start" x="719.17" y="-15.4" font-family="sans-serif" font-size="14.00"> &#160;Providers</text>
<polygon fill="#fb8072" stroke="transparent" points="791.5,-10 791.5,-30 811.5,-30 811.5,-10 791.5,-10"/>
<text text-anchor="start" x="815.23" y="-15.4" font-family="sans-serif" font-size="14.00"> &#160;Exports</text>
<g id="clust1" class="cluster">
<title>cluster_AppModule</title>
<polygon fill="none" stroke="black" stroke-dasharray="1,5" points="8,-70 8,-268 1259,-268 1259,-70 8,-70"/>
</g>
<g id="clust11" class="cluster">
<title>cluster_AppModule_imports</title>
<polygon fill="none" stroke="black" points="1107,-78 1107,-130 1251,-130 1251,-78 1107,-78"/>
</g>
<g id="clust13" class="cluster">
<title>cluster_AppModule_bootstrap</title>
<polygon fill="none" stroke="black" points="569,-208 569,-260 693,-260 693,-208 569,-208"/>
</g>
<g id="clust2" class="cluster">
<title>cluster_AppModule_declarations</title>
<polygon fill="none" stroke="black" points="16,-78 16,-130 1099,-130 1099,-78 16,-78"/>
</g>
<!-- AppComponent -->
<g id="node1" class="node">
<title>AppComponent</title>
<polygon fill="#ffffb3" stroke="black" points="1090.94,-122 985.06,-122 985.06,-86 1090.94,-86 1090.94,-122"/>
<text text-anchor="middle" x="1038" y="-99.8" font-family="Times,serif" font-size="14.00">AppComponent</text>
</g>
<!-- AppModule -->
<g id="node9" class="node">
<title>AppModule</title>
<polygon fill="#8dd3c7" stroke="black" points="672.66,-187 669.66,-191 648.66,-191 645.66,-187 589.34,-187 589.34,-151 672.66,-151 672.66,-187"/>
<text text-anchor="middle" x="631" y="-164.8" font-family="Times,serif" font-size="14.00">AppModule</text>
</g>
<!-- AppComponent&#45;&gt;AppModule -->
<g id="edge1" class="edge">
<title>AppComponent&#45;&gt;AppModule</title>
<path fill="none" stroke="black" d="M1038,-122.13C1038,-142.57 1038,-173 1038,-173 1038,-173 683.02,-173 683.02,-173"/>
<polygon fill="black" stroke="black" points="683.02,-169.5 673.02,-173 683.02,-176.5 683.02,-169.5"/>
</g>
<!-- CartComponent -->
<g id="node2" class="node">
<title>CartComponent</title>
<polygon fill="#ffffb3" stroke="black" points="967.94,-122 862.06,-122 862.06,-86 967.94,-86 967.94,-122"/>
<text text-anchor="middle" x="915" y="-99.8" font-family="Times,serif" font-size="14.00">CartComponent</text>
</g>
<!-- CartComponent&#45;&gt;AppModule -->
<g id="edge2" class="edge">
<title>CartComponent&#45;&gt;AppModule</title>
<path fill="none" stroke="black" d="M915,-122.27C915,-140.56 915,-166 915,-166 915,-166 682.91,-166 682.91,-166"/>
<polygon fill="black" stroke="black" points="682.91,-162.5 672.91,-166 682.91,-169.5 682.91,-162.5"/>
</g>
<!-- ItemEditComponent -->
<g id="node3" class="node">
<title>ItemEditComponent</title>
<polygon fill="#ffffb3" stroke="black" points="844.32,-122 713.68,-122 713.68,-86 844.32,-86 844.32,-122"/>
<text text-anchor="middle" x="779" y="-99.8" font-family="Times,serif" font-size="14.00">ItemEditComponent</text>
</g>
<!-- ItemEditComponent&#45;&gt;AppModule -->
<g id="edge3" class="edge">
<title>ItemEditComponent&#45;&gt;AppModule</title>
<path fill="none" stroke="black" d="M779,-122.01C779,-138.05 779,-159 779,-159 779,-159 683.01,-159 683.01,-159"/>
<polygon fill="black" stroke="black" points="683.02,-155.5 673.01,-159 683.01,-162.5 683.02,-155.5"/>
</g>
<!-- ItemInfoComponent -->
<g id="node4" class="node">
<title>ItemInfoComponent</title>
<polygon fill="#ffffb3" stroke="black" points="696.31,-122 565.69,-122 565.69,-86 696.31,-86 696.31,-122"/>
<text text-anchor="middle" x="631" y="-99.8" font-family="Times,serif" font-size="14.00">ItemInfoComponent</text>
</g>
<!-- ItemInfoComponent&#45;&gt;AppModule -->
<g id="edge4" class="edge">
<title>ItemInfoComponent&#45;&gt;AppModule</title>
<path fill="none" stroke="black" d="M631,-122.11C631,-122.11 631,-140.99 631,-140.99"/>
<polygon fill="black" stroke="black" points="627.5,-140.99 631,-150.99 634.5,-140.99 627.5,-140.99"/>
</g>
<!-- LoginComponent -->
<g id="node5" class="node">
<title>LoginComponent</title>
<polygon fill="#ffffb3" stroke="black" points="547.28,-122 432.72,-122 432.72,-86 547.28,-86 547.28,-122"/>
<text text-anchor="middle" x="490" y="-99.8" font-family="Times,serif" font-size="14.00">LoginComponent</text>
</g>
<!-- LoginComponent&#45;&gt;AppModule -->
<g id="edge5" class="edge">
<title>LoginComponent&#45;&gt;AppModule</title>
<path fill="none" stroke="black" d="M490,-122.01C490,-138.05 490,-159 490,-159 490,-159 579.08,-159 579.08,-159"/>
<polygon fill="black" stroke="black" points="579.08,-162.5 589.08,-159 579.08,-155.5 579.08,-162.5"/>
</g>
<!-- MenuComponent -->
<g id="node6" class="node">
<title>MenuComponent</title>
<polygon fill="#ffffb3" stroke="black" points="414.99,-122 301.01,-122 301.01,-86 414.99,-86 414.99,-122"/>
<text text-anchor="middle" x="358" y="-99.8" font-family="Times,serif" font-size="14.00">MenuComponent</text>
</g>
<!-- MenuComponent&#45;&gt;AppModule -->
<g id="edge6" class="edge">
<title>MenuComponent&#45;&gt;AppModule</title>
<path fill="none" stroke="black" d="M358,-122.27C358,-140.56 358,-166 358,-166 358,-166 579.24,-166 579.24,-166"/>
<polygon fill="black" stroke="black" points="579.24,-169.5 589.24,-166 579.24,-162.5 579.24,-169.5"/>
</g>
<!-- SearchComponent -->
<g id="node7" class="node">
<title>SearchComponent</title>
<polygon fill="#ffffb3" stroke="black" points="282.92,-122 163.08,-122 163.08,-86 282.92,-86 282.92,-122"/>
<text text-anchor="middle" x="223" y="-99.8" font-family="Times,serif" font-size="14.00">SearchComponent</text>
</g>
<!-- SearchComponent&#45;&gt;AppModule -->
<g id="edge7" class="edge">
<title>SearchComponent&#45;&gt;AppModule</title>
<path fill="none" stroke="black" d="M223,-122.13C223,-142.57 223,-173 223,-173 223,-173 579.25,-173 579.25,-173"/>
<polygon fill="black" stroke="black" points="579.25,-176.5 589.25,-173 579.25,-169.5 579.25,-176.5"/>
</g>
<!-- SignupComponent -->
<g id="node8" class="node">
<title>SignupComponent</title>
<polygon fill="#ffffb3" stroke="black" points="145.51,-122 24.49,-122 24.49,-86 145.51,-86 145.51,-122"/>
<text text-anchor="middle" x="85" y="-99.8" font-family="Times,serif" font-size="14.00">SignupComponent</text>
</g>
<!-- SignupComponent&#45;&gt;AppModule -->
<g id="edge8" class="edge">
<title>SignupComponent&#45;&gt;AppModule</title>
<path fill="none" stroke="black" d="M85,-122.01C85,-144.49 85,-180 85,-180 85,-180 579.06,-180 579.06,-180"/>
<polygon fill="black" stroke="black" points="579.06,-183.5 589.06,-180 579.06,-176.5 579.06,-183.5"/>
</g>
<!-- AppComponent  -->
<g id="node11" class="node">
<title>AppComponent </title>
<polygon fill="#80b1d3" stroke="black" points="685.44,-252 576.56,-252 576.56,-216 685.44,-216 685.44,-252"/>
<text text-anchor="middle" x="631" y="-229.8" font-family="Times,serif" font-size="14.00">AppComponent </text>
</g>
<!-- AppModule&#45;&gt;AppComponent  -->
<g id="edge10" class="edge">
<title>AppModule&#45;&gt;AppComponent </title>
<path fill="none" stroke="black" stroke-dasharray="1,5" d="M631,-187.11C631,-187.11 631,-205.99 631,-205.99"/>
<polygon fill="black" stroke="black" points="627.5,-205.99 631,-215.99 634.5,-205.99 627.5,-205.99"/>
</g>
<!-- AppRoutingModule -->
<g id="node10" class="node">
<title>AppRoutingModule</title>
<polygon fill="#8dd3c7" stroke="black" points="1243.27,-122 1240.27,-126 1219.27,-126 1216.27,-122 1114.73,-122 1114.73,-86 1243.27,-86 1243.27,-122"/>
<text text-anchor="middle" x="1179" y="-99.8" font-family="Times,serif" font-size="14.00">AppRoutingModule</text>
</g>
<!-- AppRoutingModule&#45;&gt;AppModule -->
<g id="edge9" class="edge">
<title>AppRoutingModule&#45;&gt;AppModule</title>
<path fill="none" stroke="black" d="M1179,-122.01C1179,-144.49 1179,-180 1179,-180 1179,-180 683.09,-180 683.09,-180"/>
<polygon fill="black" stroke="black" points="683.09,-176.5 673.09,-180 683.09,-183.5 683.09,-176.5"/>
</g>
</g>
</svg>
